<svg width="18" height="18" viewBox="0 0 18 18" fill="none" xmlns="http://www.w3.org/2000/svg">
<path d="M2 9C2 5.14364 5.14364 2 9 2C12.8564 2 16 5.14364 16 9C16 12.8564 12.8564 16 9 16C5.14364 16 2 12.8564 2 9ZM10.0625 12V10.0625H12C12.5836 10.0625 13.0625 9.58364 13.0625 9C13.0625 8.41636 12.5836 7.9375 12 7.9375H10.0625V6C10.0625 5.41636 9.58364 4.9375 9 4.9375C8.41636 4.9375 7.9375 5.41636 7.9375 6V7.9375H6C5.41636 7.9375 4.9375 8.41636 4.9375 9C4.9375 9.58364 5.41636 10.0625 6 10.0625H7.9375V12C7.9375 12.5836 8.41636 13.0625 9 13.0625C9.58364 13.0625 10.0625 12.5836 10.0625 12Z" fill="white" stroke="white"/>
</svg>
